<mxfile host="app.diagrams.net" modified="2024-04-30T10:15:58.937Z" agent="Mozilla/5.0 (Windows NT 10.0; Win64; x64) AppleWebKit/537.36 (KHTML, like Gecko) Chrome/124.0.0.0 Safari/537.36" version="24.3.1" etag="NnNl0BuFV9fa5FggYyr5" type="device">
  <diagram id="JGYlxTka_ns2wKtcTEZ9" name="Page-1">
    <mxGraphModel dx="2417" dy="930" grid="1" gridSize="10" guides="1" tooltips="1" connect="1" arrows="1" fold="1" page="1" pageScale="1" pageWidth="827" pageHeight="1169" math="0" shadow="0">
      <root>
        <mxCell id="0" />
        <mxCell id="1" parent="0" />
        <mxCell id="esTPB8hC5ADS1QTTcMSm-38" value="" style="edgeStyle=orthogonalEdgeStyle;rounded=0;orthogonalLoop=1;jettySize=auto;html=1;strokeColor=default;strokeWidth=3;align=center;verticalAlign=middle;fontFamily=Helvetica;fontSize=11;fontColor=default;labelBackgroundColor=default;endArrow=classic;" edge="1" parent="1" source="esTPB8hC5ADS1QTTcMSm-1" target="esTPB8hC5ADS1QTTcMSm-37">
          <mxGeometry relative="1" as="geometry" />
        </mxCell>
        <mxCell id="esTPB8hC5ADS1QTTcMSm-1" value="&lt;font style=&quot;font-size: 15px;&quot;&gt;Start&lt;/font&gt;" style="ellipse;whiteSpace=wrap;html=1;fillColor=#d5e8d4;strokeColor=#82b366;" vertex="1" parent="1">
          <mxGeometry x="140" y="10" width="146" height="70" as="geometry" />
        </mxCell>
        <mxCell id="esTPB8hC5ADS1QTTcMSm-12" value="" style="edgeStyle=orthogonalEdgeStyle;rounded=0;orthogonalLoop=1;jettySize=auto;html=1;strokeWidth=3;" edge="1" parent="1" source="esTPB8hC5ADS1QTTcMSm-2" target="esTPB8hC5ADS1QTTcMSm-10">
          <mxGeometry relative="1" as="geometry" />
        </mxCell>
        <mxCell id="esTPB8hC5ADS1QTTcMSm-2" value="&lt;span style=&quot;font-size: 15px;&quot;&gt;update the pythons pip interpreted&amp;nbsp;&lt;/span&gt;" style="rounded=0;whiteSpace=wrap;html=1;fillColor=#dae8fc;strokeColor=#6c8ebf;" vertex="1" parent="1">
          <mxGeometry x="143" y="225" width="140" height="60" as="geometry" />
        </mxCell>
        <mxCell id="esTPB8hC5ADS1QTTcMSm-15" value="" style="edgeStyle=orthogonalEdgeStyle;rounded=0;orthogonalLoop=1;jettySize=auto;html=1;strokeWidth=3;" edge="1" parent="1" source="esTPB8hC5ADS1QTTcMSm-10" target="esTPB8hC5ADS1QTTcMSm-14">
          <mxGeometry relative="1" as="geometry" />
        </mxCell>
        <mxCell id="esTPB8hC5ADS1QTTcMSm-30" value="" style="edgeStyle=orthogonalEdgeStyle;rounded=0;orthogonalLoop=1;jettySize=auto;html=1;strokeWidth=3;" edge="1" parent="1" source="esTPB8hC5ADS1QTTcMSm-10" target="esTPB8hC5ADS1QTTcMSm-29">
          <mxGeometry relative="1" as="geometry" />
        </mxCell>
        <mxCell id="esTPB8hC5ADS1QTTcMSm-10" value="&lt;span style=&quot;font-size: 15px;&quot;&gt;send each package name through&lt;/span&gt;&lt;span style=&quot;color: rgba(0, 0, 0, 0); font-family: monospace; font-size: 0px; text-wrap: nowrap; background-color: rgb(251, 251, 251);&quot;&gt;%3CmxGraphModel%3E%3Croot%3E%3CmxCell%20id%3D%220%22%2F%3E%3CmxCell%20id%3D%221%22%20parent%3D%220%22%2F%3E%3CmxCell%20id%3D%222%22%20value%3D%22%26lt%3Bspan%20style%3D%26quot%3Bfont-size%3A%2015px%3B%26quot%3B%26gt%3Bcould%20code%20find%20file%20to%20import%20functions%3F%26lt%3B%2Fspan%26gt%3B%22%20style%3D%22rhombus%3BwhiteSpace%3Dwrap%3Bhtml%3D1%3BfontFamily%3DHelvetica%3BfontSize%3D11%3BlabelBackgroundColor%3Ddefault%3BfillColor%3D%23fff2cc%3BstrokeColor%3D%23d6b656%3BlabelPosition%3Dright%3BverticalLabelPosition%3Dmiddle%3Balign%3Dleft%3BverticalAlign%3Dmiddle%3BtextDirection%3Dltr%3B%22%20vertex%3D%221%22%20parent%3D%221%22%3E%3CmxGeometry%20x%3D%22367%22%20y%3D%22235%22%20width%3D%22117%22%20height%3D%22110%22%20as%3D%22geometry%22%2F%3E%3C%2FmxCell%3E%3C%2Froot%3E%3C%2FmxGraphModel%3E&lt;/span&gt;&lt;span style=&quot;font-size: 15px;&quot;&gt;&amp;nbsp;loop. Is there any packages left&amp;nbsp;&amp;nbsp;&lt;/span&gt;" style="rhombus;whiteSpace=wrap;html=1;fontFamily=Helvetica;fontSize=11;labelBackgroundColor=default;fillColor=#fff2cc;strokeColor=#d6b656;labelPosition=left;verticalLabelPosition=middle;align=right;verticalAlign=middle;textDirection=ltr;" vertex="1" parent="1">
          <mxGeometry x="154.5" y="345" width="117" height="110" as="geometry" />
        </mxCell>
        <mxCell id="esTPB8hC5ADS1QTTcMSm-25" style="edgeStyle=orthogonalEdgeStyle;rounded=0;orthogonalLoop=1;jettySize=auto;html=1;entryX=0.5;entryY=0;entryDx=0;entryDy=0;strokeWidth=3;" edge="1" parent="1" source="esTPB8hC5ADS1QTTcMSm-11" target="esTPB8hC5ADS1QTTcMSm-10">
          <mxGeometry relative="1" as="geometry">
            <Array as="points">
              <mxPoint x="-230" y="725" />
              <mxPoint x="-230" y="325" />
              <mxPoint x="213" y="325" />
            </Array>
          </mxGeometry>
        </mxCell>
        <mxCell id="esTPB8hC5ADS1QTTcMSm-11" value="&lt;font style=&quot;font-size: 15px;&quot;&gt;Output that the package is installed&lt;/font&gt;" style="shape=parallelogram;perimeter=parallelogramPerimeter;whiteSpace=wrap;html=1;fixedSize=1;rounded=0;strokeColor=#9673a6;align=center;verticalAlign=middle;fontFamily=Helvetica;fontSize=12;fillColor=#e1d5e7;" vertex="1" parent="1">
          <mxGeometry x="153" y="695" width="120" height="60" as="geometry" />
        </mxCell>
        <mxCell id="esTPB8hC5ADS1QTTcMSm-17" value="" style="edgeStyle=orthogonalEdgeStyle;rounded=0;orthogonalLoop=1;jettySize=auto;html=1;strokeWidth=3;" edge="1" parent="1" source="esTPB8hC5ADS1QTTcMSm-14" target="esTPB8hC5ADS1QTTcMSm-11">
          <mxGeometry relative="1" as="geometry" />
        </mxCell>
        <mxCell id="esTPB8hC5ADS1QTTcMSm-19" value="" style="edgeStyle=orthogonalEdgeStyle;rounded=0;orthogonalLoop=1;jettySize=auto;html=1;strokeWidth=3;" edge="1" parent="1" source="esTPB8hC5ADS1QTTcMSm-14" target="esTPB8hC5ADS1QTTcMSm-18">
          <mxGeometry relative="1" as="geometry" />
        </mxCell>
        <mxCell id="esTPB8hC5ADS1QTTcMSm-14" value="&lt;span style=&quot;font-size: 15px;&quot;&gt;is package already installed&amp;nbsp;&lt;/span&gt;" style="rhombus;whiteSpace=wrap;html=1;fontFamily=Helvetica;fontSize=11;labelBackgroundColor=default;fillColor=#fff2cc;strokeColor=#d6b656;labelPosition=right;verticalLabelPosition=middle;align=left;verticalAlign=middle;textDirection=ltr;" vertex="1" parent="1">
          <mxGeometry x="154.5" y="525" width="117" height="110" as="geometry" />
        </mxCell>
        <mxCell id="esTPB8hC5ADS1QTTcMSm-16" value="&lt;font style=&quot;font-size: 15px;&quot;&gt;Yes&lt;/font&gt;" style="text;html=1;align=center;verticalAlign=middle;whiteSpace=wrap;rounded=0;" vertex="1" parent="1">
          <mxGeometry x="240" y="465" width="60" height="30" as="geometry" />
        </mxCell>
        <mxCell id="esTPB8hC5ADS1QTTcMSm-21" value="" style="edgeStyle=orthogonalEdgeStyle;rounded=0;orthogonalLoop=1;jettySize=auto;html=1;strokeWidth=3;" edge="1" parent="1" source="esTPB8hC5ADS1QTTcMSm-18" target="esTPB8hC5ADS1QTTcMSm-20">
          <mxGeometry relative="1" as="geometry" />
        </mxCell>
        <mxCell id="esTPB8hC5ADS1QTTcMSm-18" value="&lt;span style=&quot;font-size: 15px;&quot;&gt;Output installing package&lt;/span&gt;" style="shape=parallelogram;perimeter=parallelogramPerimeter;whiteSpace=wrap;html=1;fixedSize=1;rounded=0;strokeColor=#9673a6;align=center;verticalAlign=middle;fontFamily=Helvetica;fontSize=12;fillColor=#e1d5e7;" vertex="1" parent="1">
          <mxGeometry x="-10" y="610" width="120" height="60" as="geometry" />
        </mxCell>
        <mxCell id="esTPB8hC5ADS1QTTcMSm-24" value="" style="edgeStyle=orthogonalEdgeStyle;rounded=0;orthogonalLoop=1;jettySize=auto;html=1;strokeWidth=3;" edge="1" parent="1" source="esTPB8hC5ADS1QTTcMSm-20" target="esTPB8hC5ADS1QTTcMSm-23">
          <mxGeometry relative="1" as="geometry" />
        </mxCell>
        <mxCell id="esTPB8hC5ADS1QTTcMSm-20" value="&lt;span style=&quot;font-size: 15px;&quot;&gt;Output message saying it could take awhile&lt;/span&gt;" style="shape=parallelogram;perimeter=parallelogramPerimeter;whiteSpace=wrap;html=1;fixedSize=1;rounded=0;strokeColor=#9673a6;align=center;verticalAlign=middle;fontFamily=Helvetica;fontSize=12;fillColor=#e1d5e7;" vertex="1" parent="1">
          <mxGeometry x="-10" y="495" width="120" height="60" as="geometry" />
        </mxCell>
        <mxCell id="esTPB8hC5ADS1QTTcMSm-26" style="edgeStyle=orthogonalEdgeStyle;rounded=0;orthogonalLoop=1;jettySize=auto;html=1;entryX=0.5;entryY=0;entryDx=0;entryDy=0;strokeWidth=3;exitX=0;exitY=0.5;exitDx=0;exitDy=0;" edge="1" parent="1" source="esTPB8hC5ADS1QTTcMSm-23" target="esTPB8hC5ADS1QTTcMSm-10">
          <mxGeometry relative="1" as="geometry">
            <Array as="points">
              <mxPoint x="-230" y="525" />
              <mxPoint x="-230" y="325" />
              <mxPoint x="213" y="325" />
            </Array>
          </mxGeometry>
        </mxCell>
        <mxCell id="esTPB8hC5ADS1QTTcMSm-23" value="&lt;span style=&quot;font-size: 15px;&quot;&gt;install the package&lt;/span&gt;" style="rounded=0;whiteSpace=wrap;html=1;fillColor=#dae8fc;strokeColor=#6c8ebf;" vertex="1" parent="1">
          <mxGeometry x="-190" y="495" width="140" height="60" as="geometry" />
        </mxCell>
        <mxCell id="esTPB8hC5ADS1QTTcMSm-27" value="&lt;font style=&quot;font-size: 15px;&quot;&gt;Yes&lt;/font&gt;" style="text;html=1;align=center;verticalAlign=middle;whiteSpace=wrap;rounded=0;" vertex="1" parent="1">
          <mxGeometry x="240" y="640" width="60" height="30" as="geometry" />
        </mxCell>
        <mxCell id="esTPB8hC5ADS1QTTcMSm-28" value="&lt;span style=&quot;font-size: 15px;&quot;&gt;No&lt;/span&gt;" style="text;html=1;align=center;verticalAlign=middle;whiteSpace=wrap;rounded=0;" vertex="1" parent="1">
          <mxGeometry x="130" y="510" width="60" height="30" as="geometry" />
        </mxCell>
        <mxCell id="esTPB8hC5ADS1QTTcMSm-32" value="" style="edgeStyle=orthogonalEdgeStyle;rounded=0;orthogonalLoop=1;jettySize=auto;html=1;strokeColor=default;strokeWidth=3;align=center;verticalAlign=middle;fontFamily=Helvetica;fontSize=11;fontColor=default;labelBackgroundColor=default;endArrow=classic;" edge="1" parent="1" source="esTPB8hC5ADS1QTTcMSm-29" target="esTPB8hC5ADS1QTTcMSm-31">
          <mxGeometry relative="1" as="geometry" />
        </mxCell>
        <mxCell id="esTPB8hC5ADS1QTTcMSm-29" value="&lt;font style=&quot;font-size: 15px;&quot;&gt;Install nlkt&amp;nbsp;punkt&amp;nbsp;&lt;/font&gt;" style="rounded=0;whiteSpace=wrap;html=1;fillColor=#dae8fc;strokeColor=#6c8ebf;" vertex="1" parent="1">
          <mxGeometry x="330" y="370" width="140" height="60" as="geometry" />
        </mxCell>
        <mxCell id="esTPB8hC5ADS1QTTcMSm-34" value="" style="edgeStyle=orthogonalEdgeStyle;rounded=0;orthogonalLoop=1;jettySize=auto;html=1;strokeColor=default;strokeWidth=3;align=center;verticalAlign=middle;fontFamily=Helvetica;fontSize=11;fontColor=default;labelBackgroundColor=default;endArrow=classic;" edge="1" parent="1" source="esTPB8hC5ADS1QTTcMSm-31" target="esTPB8hC5ADS1QTTcMSm-33">
          <mxGeometry relative="1" as="geometry" />
        </mxCell>
        <mxCell id="esTPB8hC5ADS1QTTcMSm-31" value="&lt;font style=&quot;font-size: 15px;&quot;&gt;Install nlkt stopword&lt;/font&gt;" style="rounded=0;whiteSpace=wrap;html=1;fillColor=#dae8fc;strokeColor=#6c8ebf;" vertex="1" parent="1">
          <mxGeometry x="520" y="370" width="140" height="60" as="geometry" />
        </mxCell>
        <mxCell id="esTPB8hC5ADS1QTTcMSm-36" value="" style="edgeStyle=orthogonalEdgeStyle;rounded=0;orthogonalLoop=1;jettySize=auto;html=1;strokeColor=default;strokeWidth=3;align=center;verticalAlign=middle;fontFamily=Helvetica;fontSize=11;fontColor=default;labelBackgroundColor=default;endArrow=classic;" edge="1" parent="1" source="esTPB8hC5ADS1QTTcMSm-33" target="esTPB8hC5ADS1QTTcMSm-35">
          <mxGeometry relative="1" as="geometry" />
        </mxCell>
        <mxCell id="esTPB8hC5ADS1QTTcMSm-33" value="&lt;span style=&quot;font-size: 15px;&quot;&gt;Output all packages are installed&lt;/span&gt;" style="shape=parallelogram;perimeter=parallelogramPerimeter;whiteSpace=wrap;html=1;fixedSize=1;rounded=0;strokeColor=#9673a6;align=center;verticalAlign=middle;fontFamily=Helvetica;fontSize=12;fillColor=#e1d5e7;" vertex="1" parent="1">
          <mxGeometry x="530" y="475" width="120" height="60" as="geometry" />
        </mxCell>
        <mxCell id="esTPB8hC5ADS1QTTcMSm-35" value="&lt;span style=&quot;font-size: 15px;&quot;&gt;End&lt;/span&gt;" style="ellipse;whiteSpace=wrap;html=1;fillColor=#d5e8d4;strokeColor=#82b366;" vertex="1" parent="1">
          <mxGeometry x="517" y="584.5" width="146" height="70" as="geometry" />
        </mxCell>
        <mxCell id="esTPB8hC5ADS1QTTcMSm-39" value="" style="edgeStyle=orthogonalEdgeStyle;rounded=0;orthogonalLoop=1;jettySize=auto;html=1;strokeColor=default;strokeWidth=3;align=center;verticalAlign=middle;fontFamily=Helvetica;fontSize=11;fontColor=default;labelBackgroundColor=default;endArrow=classic;" edge="1" parent="1" source="esTPB8hC5ADS1QTTcMSm-37" target="esTPB8hC5ADS1QTTcMSm-2">
          <mxGeometry relative="1" as="geometry" />
        </mxCell>
        <mxCell id="esTPB8hC5ADS1QTTcMSm-37" value="&lt;span style=&quot;font-size: 15px;&quot;&gt;Output installing pip&lt;/span&gt;" style="shape=parallelogram;perimeter=parallelogramPerimeter;whiteSpace=wrap;html=1;fixedSize=1;rounded=0;strokeColor=#9673a6;align=center;verticalAlign=middle;fontFamily=Helvetica;fontSize=12;fillColor=#e1d5e7;" vertex="1" parent="1">
          <mxGeometry x="153" y="120" width="120" height="60" as="geometry" />
        </mxCell>
        <mxCell id="esTPB8hC5ADS1QTTcMSm-41" value="&lt;span style=&quot;font-size: 15px;&quot;&gt;No&lt;/span&gt;" style="text;html=1;align=center;verticalAlign=middle;whiteSpace=wrap;rounded=0;" vertex="1" parent="1">
          <mxGeometry x="260" y="350" width="60" height="30" as="geometry" />
        </mxCell>
      </root>
    </mxGraphModel>
  </diagram>
</mxfile>
